<?xml version="1.0" encoding="UTF-8" standalone="no"?>
<svg
   version="1.0"
   width="136.92595pt"
   height="211.49257pt"
   viewBox="0 0 136.92595 211.49257"
   preserveAspectRatio="xMidYMid"
   id="svg5"
   sodipodi:docname="uncannyprompt_icon.svg"
   inkscape:version="1.4.3 (0d15f75, 2025-12-25)"
   xmlns:inkscape="http://www.inkscape.org/namespaces/inkscape"
   xmlns:sodipodi="http://sodipodi.sourceforge.net/DTD/sodipodi-0.dtd"
   xmlns="http://www.w3.org/2000/svg"
   xmlns:svg="http://www.w3.org/2000/svg">
  <defs
     id="defs5" />
  <sodipodi:namedview
     id="namedview5"
     pagecolor="#ffffff"
     bordercolor="#666666"
     borderopacity="1.0"
     inkscape:showpageshadow="2"
     inkscape:pageopacity="0.0"
     inkscape:pagecheckerboard="0"
     inkscape:deskcolor="#d1d1d1"
     inkscape:document-units="pt"
     inkscape:zoom="0.85595276"
     inkscape:cx="66.008316"
     inkscape:cy="76.522915"
     inkscape:window-width="1920"
     inkscape:window-height="1009"
     inkscape:window-x="-8"
     inkscape:window-y="-8"
     inkscape:window-maximized="1"
     inkscape:current-layer="g5" />
  <g
     transform="matrix(0.1,0,0,-0.1,-43,232.3849)"
     fill="#000000"
     stroke="none"
     id="g5">
    <path
       d="m 595,1855 c -5,-2 -22,-6 -37,-9 -39,-9 -88,-54 -109,-101 -17,-38 -19,-83 -19,-758 0,-720 1,-747 34,-769 32,-22 63,-6 141,70 156,149 201,162 580,162 274,0 281,1 330,24 28,13 67,41 87,62 67,70 68,80 68,521 0,0 8.7622,360.0466 -2.7382,394.5476 -59.166,96.3525 -185.0394,2.5825 -249.2618,-42.5476 -120,-89 -276,-149 -385,-149 -43,0 -83,25 -83,52 0,6 20,38 45,69 25,32 64,96 87,144 143.3391,309.8682 141.6312,332.1997 -262,332 -118,1 -219,0 -225,-2 z m 775,-825 c 21,-21 25,-47 12,-66 -20,-31 -55.0165,-37.13354 -352,-34 0,0 -269.90703,-0.10394 -314.15737,7.18712 C 652.59531,949.68022 669.35316,1014.8426 700,1030 c 24.08528,11.9121 33,20 335,20 302,0 316,-1 335,-20 z M 1163.4658,782 c 23,-20 22,-47 -3,-72 -19,-19 -32.871,-18.45105 -160.4658,-20 -266.98033,-3.24103 -281,1 -300,20 -25,25 -26,52 -2,73 23,21 89,24 362,19 82.3184,-5.54895 88.4658,-7 103.4658,-20 z"
       id="path4"
       sodipodi:nodetypes="cccsccsccsccssccccscscssscsssccc" />
    <path
       d="m 1321.1892,1658.6162 c -15,-40 -25,-50 -63,-67 l -45,-20 42,-19 c 33,-14 46,-28 63,-65 l 21,-48 21,45 c 15,32 33,50 64,66 l 44,22 -49,23 c -40,19 -51,30 -64,66 l -16,44 z"
       id="path5"
       sodipodi:nodetypes="ccccccccccccc"
       style="fill:#2bb6a2;fill-opacity:1" />
    <path
       d="m 1360.8043,2216.2869 c -43.0906,-109.0664 -39.6895,-107.856 -144.1788,-153.333 l -102.985,-45.7711 96.1192,-43.4825 c 97.4277,-36.4208 100.8924,-44.3647 144.1789,-148.7561 l 48.0597,-109.8505 48.0596,109.5565 c 32.1378,97.3298 33.902,96.9034 131.1336,144.473 l 116.0303,50.3481 -125.2824,43.8746 c -98.1138,52.2447 -99.192,55.5134 -133.3243,159.8067 l -36.6168,100.6964 z"
       id="path5-5"
       sodipodi:nodetypes="ccccccccccccc"
       style="fill:#2bb6a2;fill-opacity:1;stroke-width:2.28856" />
    <path
       d="m 1671.2012,1873.0876 c -13.0672,-34.8458 -21.7786,-43.5573 -54.8821,-58.3667 l -39.2015,-17.4229 36.5881,-16.5518 c 28.7477,-12.196 40.0726,-24.392 54.8821,-56.6244 l 18.294,-41.8149 18.2941,39.2015 c 13.0671,27.8766 28.7477,43.5572 55.7532,57.4956 l 38.3304,19.1651 -42.6861,20.0364 c -34.8458,16.5517 -44.4284,26.1343 -55.7533,57.4955 l -13.9383,38.3304 z"
       id="path5-9"
       sodipodi:nodetypes="ccccccccccccc"
       style="fill:#2bb6a2;fill-opacity:1;stroke-width:0.871145" />
    <path
       d="m 989.06467,2128.5769 c -9.0727,-24.1937 -15.1211,-30.2422 -38.10511,-40.5245 l -27.21795,-12.0969 25.40344,-11.492 c 19.95982,-8.4678 27.82272,-16.9356 38.10512,-39.3148 l 12.7017,-29.0325 12.70183,27.218 c 9.0726,19.3549 19.9597,30.2421 38.7099,39.9197 l 26.6131,13.3065 -29.6373,13.9114 c -24.1938,11.492 -30.847,18.1453 -38.71,39.9196 l -9.67753,26.6132 z"
       id="path5-9-8"
       sodipodi:nodetypes="ccccccccccccc"
       style="fill:#2bb6a2;fill-opacity:1;stroke-width:0.604844" />
  </g>
</svg>
